<svg xmlns="http://www.w3.org/2000/svg" width="740" height="430" viewBox="0 0 740 430" role="img"><title>C01: Лёгкий дом</title><rect x="0" y="0" width="740" height="430" rx="0" fill="#F8F8F8"/><rect x="0" y="0" width="740" height="430" rx="16" fill="#FFFFFF"/><text x="26" y="41" font-family="Arial, sans-serif" font-size="19" font-weight="400" fill="#021738">C01  /  Home / light &amp; playful</text><text x="26" y="90" font-family="Arial, sans-serif" font-size="32" font-weight="700" fill="#021738">Лёгкий дом</text><text x="26" y="127" font-family="Arial, sans-serif" font-size="18" font-weight="400" fill="#021738">Интерьеры · спокойная база, живые детали</text><rect x="26" y="150" width="160" height="126" rx="8" fill="#F8F8F8"/><rect x="26" y="275" width="160" height="1" rx="0" fill="#021738"/><text x="26" y="311" font-family="Arial, sans-serif" font-size="18" font-weight="400" fill="#021738">Milk White</text><text x="26" y="359" font-family="Arial, sans-serif" font-size="19" font-weight="700" fill="#021738">#F8F8F8</text><text x="26" y="392" font-family="Arial, sans-serif" font-size="16" font-weight="400" fill="#021738">Светлая база</text><rect x="202" y="150" width="160" height="126" rx="8" fill="#FFF6F1"/><rect x="202" y="275" width="160" height="1" rx="0" fill="#021738"/><text x="202" y="311" font-family="Arial, sans-serif" font-size="18" font-weight="400" fill="#021738">Light Pumpkin</text><text x="202" y="333" font-family="Arial, sans-serif" font-size="18" font-weight="400" fill="#021738">Orange</text><text x="202" y="359" font-family="Arial, sans-serif" font-size="19" font-weight="700" fill="#021738">#FFF6F1</text><text x="202" y="392" font-family="Arial, sans-serif" font-size="16" font-weight="400" fill="#021738">Мягкая деталь</text><rect x="378" y="150" width="160" height="126" rx="8" fill="#00C2E8"/><rect x="378" y="275" width="160" height="1" rx="0" fill="#021738"/><text x="378" y="311" font-family="Arial, sans-serif" font-size="18" font-weight="400" fill="#021738">Wolt Blue</text><text x="378" y="359" font-family="Arial, sans-serif" font-size="19" font-weight="700" fill="#021738">#00C2E8</text><text x="378" y="392" font-family="Arial, sans-serif" font-size="16" font-weight="400" fill="#021738">Фирменный акцент</text><rect x="554" y="150" width="160" height="126" rx="8" fill="#F294CD"/><rect x="554" y="275" width="160" height="1" rx="0" fill="#021738"/><text x="554" y="311" font-family="Arial, sans-serif" font-size="18" font-weight="400" fill="#021738">Raspberry Pink</text><text x="554" y="359" font-family="Arial, sans-serif" font-size="19" font-weight="700" fill="#021738">#F294CD</text><text x="554" y="392" font-family="Arial, sans-serif" font-size="16" font-weight="400" fill="#021738">Малый акцент</text></svg>
