<svg xmlns="http://www.w3.org/2000/svg" width="740" height="430" viewBox="0 0 740 430" role="img"><title>C02: Тёплая еда</title><rect x="0" y="0" width="740" height="430" rx="0" fill="#F8F8F8"/><rect x="0" y="0" width="740" height="430" rx="16" fill="#FFFFFF"/><text x="26" y="41" font-family="Arial, sans-serif" font-size="19" font-weight="400" fill="#021738">C02  /  Food / warm contrast</text><text x="26" y="90" font-family="Arial, sans-serif" font-size="32" font-weight="700" fill="#021738">Тёплая еда</text><text x="26" y="127" font-family="Arial, sans-serif" font-size="18" font-weight="400" fill="#021738">Пицца · выпечка · тёплая золотистая еда</text><rect x="26" y="150" width="160" height="126" rx="8" fill="#F8F8F8"/><rect x="26" y="275" width="160" height="1" rx="0" fill="#021738"/><text x="26" y="311" font-family="Arial, sans-serif" font-size="18" font-weight="400" fill="#021738">Milk White</text><text x="26" y="359" font-family="Arial, sans-serif" font-size="19" font-weight="700" fill="#021738">#F8F8F8</text><text x="26" y="392" font-family="Arial, sans-serif" font-size="16" font-weight="400" fill="#021738">Тарелка / база</text><rect x="202" y="150" width="160" height="126" rx="8" fill="#00C2E8"/><rect x="202" y="275" width="160" height="1" rx="0" fill="#021738"/><text x="202" y="311" font-family="Arial, sans-serif" font-size="18" font-weight="400" fill="#021738">Wolt Blue</text><text x="202" y="359" font-family="Arial, sans-serif" font-size="19" font-weight="700" fill="#021738">#00C2E8</text><text x="202" y="392" font-family="Arial, sans-serif" font-size="16" font-weight="400" fill="#021738">Прохладный акцент</text><rect x="378" y="150" width="160" height="126" rx="8" fill="#FCC34C"/><rect x="378" y="275" width="160" height="1" rx="0" fill="#021738"/><text x="378" y="311" font-family="Arial, sans-serif" font-size="18" font-weight="400" fill="#021738">Banana Yellow</text><text x="378" y="359" font-family="Arial, sans-serif" font-size="19" font-weight="700" fill="#021738">#FCC34C</text><text x="378" y="392" font-family="Arial, sans-serif" font-size="16" font-weight="400" fill="#021738">Малый тёплый</text><text x="378" y="413" font-family="Arial, sans-serif" font-size="16" font-weight="400" fill="#021738">акцент</text><rect x="554" y="150" width="160" height="126" rx="8" fill="#021738"/><rect x="554" y="275" width="160" height="1" rx="0" fill="#021738"/><text x="554" y="311" font-family="Arial, sans-serif" font-size="18" font-weight="400" fill="#021738">Blueberry Blue</text><text x="554" y="359" font-family="Arial, sans-serif" font-size="19" font-weight="700" fill="#021738">#021738</text><text x="554" y="392" font-family="Arial, sans-serif" font-size="16" font-weight="400" fill="#021738">Тёмная деталь</text></svg>
